<?xml version="1.0" encoding="UTF-8" standalone="no"?>
<!-- Created with Inkscape (http://www.inkscape.org/) -->

<svg
   width="210mm"
   height="297mm"
   viewBox="0 0 210 297"
   version="1.1"
   id="svg1"
   inkscape:export-filename="bitmap.svg"
   inkscape:export-xdpi="96"
   inkscape:export-ydpi="96"
   xmlns:inkscape="http://www.inkscape.org/namespaces/inkscape"
   xmlns:sodipodi="http://sodipodi.sourceforge.net/DTD/sodipodi-0.dtd"
   xmlns="http://www.w3.org/2000/svg"
   xmlns:svg="http://www.w3.org/2000/svg">
  <sodipodi:namedview
     id="namedview1"
     pagecolor="#ffffff"
     bordercolor="#000000"
     borderopacity="0.25"
     inkscape:showpageshadow="2"
     inkscape:pageopacity="0.0"
     inkscape:pagecheckerboard="0"
     inkscape:deskcolor="#d1d1d1"
     inkscape:document-units="mm" />
  <defs
     id="defs1" />
  <g
     inkscape:label="Layer 1"
     inkscape:groupmode="layer"
     id="layer1">
    <rect
       style="display:none;fill:#000000;stroke-width:0.264583"
       id="rect2"
       width="31.558895"
       height="13.134069"
       x="69.84726"
       y="93.237968"
       inkscape:label="rect2" />
    <path
       id="text1"
       style="font-size:3.175px;font-family:'Monument Extended';-inkscape-font-specification:'Monument Extended';display:none;fill:#ffffff;stroke-width:0.264583"
       d="m 76.160209,99.027547 c -0.977898,0 -1.396814,0.402864 -1.396814,1.139463 0,0.73977 0.418916,1.14619 1.396814,1.14619 0.974723,0 1.396814,-0.40959 1.396814,-1.14619 0,-0.733424 -0.422091,-1.139463 -1.396814,-1.139463 z m -4.25142,0.03152 1.257288,1.492423 v 0.73018 h 0.571541 v -0.73018 l 1.257288,-1.492423 h -0.688847 l -0.854212,1.012863 -0.854211,-1.012863 z m 5.870443,0 v 1.107943 c 0,0.7747 0.419432,1.14619 1.39733,1.14619 0.974725,0 1.396814,-0.37467 1.396814,-1.14619 v -1.107943 h -0.571541 v 1.107943 c 0,0.30797 -0.08549,0.66715 -0.825273,0.66715 -0.739773,0 -0.825789,-0.356 -0.825789,-0.66715 v -1.107943 z m 3.032373,0 v 2.222603 h 0.571541 v -0.59376 h 0.920874 l 0.358635,0.59376 h 0.672827 l -0.409278,-0.66042 c 0.29845,-0.11747 0.482658,-0.38425 0.482658,-0.746212 0,-0.4953 -0.346286,-0.815971 -0.851111,-0.815971 z m -4.651396,0.447518 c 0.5969,0 0.825273,0.209573 0.825273,0.660425 0,0.45402 -0.231548,0.66715 -0.825273,0.66715 -0.593723,0 -0.825272,-0.20995 -0.825272,-0.66715 0,-0.454027 0.228374,-0.660425 0.825272,-0.660425 z m 5.222937,0.03204 h 1.015959 c 0.17145,0 0.438216,-1.36e-4 0.438216,0.336414 0,0.333381 -0.266766,0.333311 -0.438216,0.333311 h -1.015959 z" />
    <path
       d="m 87.551706,99.097004 h -0.771525 l -0.930275,1.568446 -0.930275,-1.568446 h -0.771525 v 2.222496 h 0.5715 v -1.523996 l 0.923925,1.523996 h 0.41275 l 0.923925,-1.523996 v 1.523996 h 0.5715 z m 0.825502,0 h -0.5715 v 2.222496 h 0.5715 z m 0.187327,1.457326 c 0,0.64135 0.542925,0.79692 1.45415,0.79692 0.822325,0 1.3843,-0.12065 1.3843,-0.71437 0,-0.56198 -0.542925,-0.6096 -1.419225,-0.657226 -0.6477,-0.0381 -0.78105,-0.06985 -0.78105,-0.2413 0,-0.1651 0.13335,-0.219075 0.695325,-0.219075 0.593725,0 0.8382,0.06033 0.8382,0.3048 h 0.5715 c 0,-0.549275 -0.508,-0.758825 -1.3462,-0.758825 -0.83185,0 -1.330325,0.155575 -1.330325,0.644525 0,0.498471 0.384175,0.650871 1.35255,0.695321 0.720725,0.0349 0.847725,0.0667 0.847725,0.25083 0,0.17462 -0.180975,0.2413 -0.78105,0.2413 -0.7239,0 -0.9144,-0.10795 -0.9144,-0.3429 z m 5.394329,-1.003301 v -0.454025 h -2.3495 v 2.222496 h 2.3495 v -0.45402 h -1.778 v -0.45085 h 1.778 v -0.41275 h -1.778 v -0.450851 z m 2.803526,0.36195 c 0,-0.4953 -0.346075,-0.815975 -0.8509,-0.815975 h -1.74625 v 2.222496 h 0.5715 v -0.59372 h 0.92075 l 0.358775,0.59372 h 0.6731 l -0.409575,-0.6604 c 0.29845,-0.11747 0.4826,-0.38417 0.4826,-0.746121 z m -2.02565,-0.33655 h 1.016 c 0.17145,0 0.43815,0 0.43815,0.33655 0,0.333371 -0.2667,0.333371 -0.43815,0.333371 h -1.016 z m 3.171823,1.012821 v 0.73025 h 0.5715 v -0.73025 l 1.2573,-1.492246 h -0.688975 l -0.854075,1.012826 -0.854075,-1.012826 h -0.688975 z"
       id="text2"
       style="font-size:3.175px;font-family:'Monument Extended';-inkscape-font-specification:'Monument Extended';display:none;fill:#ffffff;stroke-width:0.264583"
       aria-label="MISERY" />
    <path
       id="path2"
       style="fill:#ffffff;fill-rule:evenodd;stroke:#000000;stroke-width:0.264583"
       d="m 80.548449,93.042991 c -1.34864,0.0092 -2.639769,0.834357 -3.112988,2.16731 -0.568233,1.600581 0.260228,3.440811 1.875854,4.010608 1.509947,0.532525 3.244207,-0.250009 3.778064,-1.775086 0.29833,-0.852242 0.151778,-1.780132 -0.323494,-2.493388 l -0.608232,0.375171 c 0.361729,0.526758 0.480335,1.217824 0.26665,1.855184 -0.389893,1.162941 -1.703122,1.762911 -2.850472,1.373043 -1.253463,-0.425925 -1.898795,-1.844488 -1.473295,-3.082499 0.461926,-1.343994 1.985863,-2.035221 3.314527,-1.574064 0.573149,0.19893 1.034584,0.578577 1.350822,1.053165 l 0.617016,-0.380338 C 82.975599,93.95765 82.372671,93.482235 81.678096,93.234194 81.308143,93.10208 80.926068,93.040415 80.548449,93.042991 Z m 1.609204,2.284615 c -0.23798,-0.346551 -0.580056,-0.622855 -1.005623,-0.763261 -0.965989,-0.318703 -2.06872,0.190087 -2.386418,1.172022 -0.283192,0.875283 0.179794,1.872884 1.071252,2.15439 0.784552,0.247747 1.677145,-0.169995 1.922364,-0.971 0.129259,-0.422226 0.041,-0.878446 -0.207223,-1.21853 l -0.605648,0.373104 c 0.135412,0.15269 0.193665,0.375969 0.147795,0.582393 -0.0977,0.439684 -0.573162,0.675895 -0.994255,0.568441 -0.529902,-0.13522 -0.810849,-0.713674 -0.668693,-1.225765 0.172171,-0.620212 0.854817,-0.946639 1.457793,-0.769462 0.278137,0.08173 0.503361,0.252558 0.663008,0.471289 z m -1.211296,0.746725 c -0.08099,-0.09132 -0.189563,-0.157212 -0.320394,-0.179318 -0.238208,-0.04025 -0.511927,0.107938 -0.529683,0.36742 -0.0099,0.145062 0.09921,0.329932 0.26665,0.297656 0.06179,-0.01191 0.165687,-0.12684 0.06563,-0.166398 z"
       transform="translate(5.2907561,14.387144)" />
  </g>
</svg>
